TITLE ""
FILE "Disc3Track39.mp3" MP3
  TRACK 01 AUDIO
    TITLE "Disc3Track39_01"
    INDEX 01 00:00:00
  TRACK 02 AUDIO
    TITLE "Disc3Track39_02"
    INDEX 01 00:01:06
  TRACK 03 AUDIO
    TITLE "Disc3Track39_03"
    INDEX 01 00:03:36
  TRACK 04 AUDIO
    TITLE "Disc3Track39_04"
    INDEX 01 00:04:51
  TRACK 05 AUDIO
    TITLE "Disc3Track39_05"
    INDEX 01 00:08:47
  TRACK 06 AUDIO
    TITLE "Disc3Track39_06"
    INDEX 01 00:09:03
  TRACK 07 AUDIO
    TITLE "Disc3Track39_07"
    INDEX 01 00:10:26
  TRACK 08 AUDIO
    TITLE "Disc3Track39_08"
    INDEX 01 00:12:17
  TRACK 09 AUDIO
    TITLE "Disc3Track39_09"
    INDEX 01 00:13:38
  TRACK 10 AUDIO
    TITLE "Disc3Track39_10"
    INDEX 01 00:17:15
  TRACK 11 AUDIO
    TITLE "Disc3Track39_11"
    INDEX 01 00:17:48
  TRACK 12 AUDIO
    TITLE "Disc3Track39_12"
    INDEX 01 00:18:71
  TRACK 13 AUDIO
    TITLE "Disc3Track39_13"
    INDEX 01 00:21:58
  TRACK 14 AUDIO
    TITLE "Disc3Track39_14"
    INDEX 01 00:23:03
  TRACK 15 AUDIO
    TITLE "Disc3Track39_15"
    INDEX 01 00:28:40
  TRACK 16 AUDIO
    TITLE "Disc3Track39_16"
    INDEX 01 00:28:71
  TRACK 17 AUDIO
    TITLE "Disc3Track39_17"
    INDEX 01 00:30:25
  TRACK 18 AUDIO
    TITLE "Disc3Track39_18"
    INDEX 01 00:32:06
  TRACK 19 AUDIO
    TITLE "Disc3Track39_19"
    INDEX 01 00:33:33
  TRACK 20 AUDIO
    TITLE "Disc3Track39_20"
    INDEX 01 00:37:15
  TRACK 21 AUDIO
    TITLE "Disc3Track39_21"
    INDEX 01 00:37:47
  TRACK 22 AUDIO
    TITLE "Disc3Track39_22"
    INDEX 01 00:38:74
  TRACK 23 AUDIO
    TITLE "Disc3Track39_23"
    INDEX 01 00:40:47
  TRACK 24 AUDIO
    TITLE "Disc3Track39_24"
    INDEX 01 00:41:72
  TRACK 25 AUDIO
    TITLE "Disc3Track39_25"
    INDEX 01 00:43:63
  TRACK 26 AUDIO
    TITLE "Disc3Track39_26"
    INDEX 01 00:44:21
  TRACK 27 AUDIO
    TITLE "Disc3Track39_27"
    INDEX 01 00:45:44
  TRACK 28 AUDIO
    TITLE "Disc3Track39_28"
    INDEX 01 00:47:61
  TRACK 29 AUDIO
    TITLE "Disc3Track39_29"
    INDEX 01 00:49:07
  TRACK 30 AUDIO
    TITLE "Disc3Track39_30"
    INDEX 01 00:51:21
  TRACK 31 AUDIO
    TITLE "Disc3Track39_31"
    INDEX 01 00:51:55
  TRACK 32 AUDIO
    TITLE "Disc3Track39_32"
    INDEX 01 00:53:09
  TRACK 33 AUDIO
    TITLE "Disc3Track39_33"
    INDEX 01 00:54:57
  TRACK 34 AUDIO
    TITLE "Disc3Track39_34"
    INDEX 01 00:56:11
  TRACK 35 AUDIO
    TITLE "Disc3Track39_35"
    INDEX 01 00:56:42
  TRACK 36 AUDIO
    TITLE "Disc3Track39_36"
    INDEX 01 00:58:04
  TRACK 37 AUDIO
    TITLE "Disc3Track39_37"
    INDEX 01 00:59:01
  TRACK 38 AUDIO
    TITLE "Disc3Track39_38"
    INDEX 01 01:00:36
  TRACK 39 AUDIO
    TITLE "Disc3Track39_39"
    INDEX 01 01:00:75
  TRACK 40 AUDIO
    TITLE "Disc3Track39_40"
    INDEX 01 01:02:27
  TRACK 41 AUDIO
    TITLE "Disc3Track39_41"
    INDEX 01 01:03:23
  TRACK 42 AUDIO
    TITLE "Disc3Track39_42"
    INDEX 01 01:04:48
  TRACK 43 AUDIO
    TITLE "Disc3Track39_43"
    INDEX 01 01:07:67
  TRACK 44 AUDIO
    TITLE "Disc3Track39_44"
    INDEX 01 01:08:26
  TRACK 45 AUDIO
    TITLE "Disc3Track39_45"
    INDEX 01 01:09:57
  TRACK 46 AUDIO
    TITLE "Disc3Track39_46"
    INDEX 01 01:12:57
  TRACK 47 AUDIO
    TITLE "Disc3Track39_47"
    INDEX 01 01:14:11
  TRACK 48 AUDIO
    TITLE "Disc3Track39_48"
    INDEX 01 01:17:44
  TRACK 49 AUDIO
    TITLE "Disc3Track39_49"
    INDEX 01 01:18:01
  TRACK 50 AUDIO
    TITLE "Disc3Track39_50"
    INDEX 01 01:19:43
  TRACK 51 AUDIO
    TITLE "Disc3Track39_51"
    INDEX 01 01:21:36
  TRACK 52 AUDIO
    TITLE "Disc3Track39_52"
    INDEX 01 01:23:04
  TRACK 53 AUDIO
    TITLE "Disc3Track39_53"
    INDEX 01 01:27:39
  TRACK 54 AUDIO
    TITLE "Disc3Track39_54"
    INDEX 01 01:27:70
  TRACK 55 AUDIO
    TITLE "Disc3Track39_55"
    INDEX 01 01:29:22
  TRACK 56 AUDIO
    TITLE "Disc3Track39_56"
    INDEX 01 01:32:36
  TRACK 57 AUDIO
    TITLE "Disc3Track39_57"
    INDEX 01 01:33:63
  TRACK 58 AUDIO
    TITLE "Disc3Track39_58"
    INDEX 01 01:37:22
